HIERARCHY
ROOT Hips
{
	OFFSET 0.00000 0.00000 0.00000
	CHANNELS 6 Xposition Yposition Zposition Zrotation Yrotation Xrotation 
	JOINT LHipJoint
	{
		OFFSET 0 0 0
		CHANNELS 3 Zrotation Yrotation Xrotation
		JOINT LeftHip
		{
			OFFSET 1.66553 -1.82942 0.76350
			CHANNELS 3 Zrotation Yrotation Xrotation
			JOINT LeftKnee
			{
				OFFSET 2.41740 -6.64177 0.00000
				CHANNELS 3 Zrotation Yrotation Xrotation
				JOINT LeftAnkle
				{
					OFFSET 2.71614 -7.46254 0.00000
					CHANNELS 3 Zrotation Yrotation Xrotation
					JOINT LeftToe
					{
						OFFSET 0.08005 -0.21993 1.82495
						CHANNELS 3 Zrotation Yrotation Xrotation
						End Site
						{
							OFFSET 0.00000 -0.00000 0.93441
						}
					}
				}
			}
		}
	}
	JOINT RHipJoint
	{
		OFFSET 0 0 0
		CHANNELS 3 Zrotation Yrotation Xrotation
		JOINT RightHip
		{
			OFFSET -1.63725 -1.82942 0.76350
			CHANNELS 3 Zrotation Yrotation Xrotation
			JOINT RightKnee
			{
				OFFSET -2.40538 -6.60872 0.00000
				CHANNELS 3 Zrotation Yrotation Xrotation
				JOINT RightAnkle
				{
					OFFSET -2.73312 -7.50919 0.00000
					CHANNELS 3 Zrotation Yrotation Xrotation
					JOINT RightToe
					{
						OFFSET -0.15567 -0.42769 1.93504
						CHANNELS 3 Zrotation Yrotation Xrotation
						End Site
						{
							OFFSET -0.00000 -0.00000 1.00100
						}
					}
				}
			}
		}
	}
	JOINT lowerback
	{
		OFFSET 0 0 0
		CHANNELS 3 Zrotation Yrotation Xrotation
		JOINT Chest
		{
			OFFSET 0.00326 2.30118 -0.13017
			CHANNELS 3 Zrotation Yrotation Xrotation
			JOINT Chest2
			{
				OFFSET 0.02887 2.30677 0.00834
				CHANNELS 3 Zrotation Yrotation Xrotation
				JOINT lowerneck
				{
					OFFSET 0 0 0
					CHANNELS 3 Zrotation Yrotation Xrotation
					JOINT Neck
					{
						OFFSET 0.12946 1.68326 0.00713
						CHANNELS 3 Zrotation Yrotation Xrotation
						JOINT Head
						{
							OFFSET -0.24364 1.67243 -0.16079
							CHANNELS 3 Zrotation Yrotation Xrotation
							End Site
							{
								OFFSET -0.09229 1.70819 -0.06383
							}
						}
					}
				}
				JOINT LeftCollar
				{
					OFFSET 0 0 0
					CHANNELS 3 Zrotation Yrotation Xrotation
					JOINT LeftShoulder
					{
						OFFSET 3.28104 0.69567 -0.00556
CHANNELS 3 Zrotation Xrotation Yrotation
						JOINT LeftElbow
						{
OFFSET 0 -5.707060 -0.000000
CHANNELS 3 Zrotation Xrotation Yrotation
							JOINT LeftWrist
							{
OFFSET 0 -3.332430 0.000000
CHANNELS 3 Zrotation Xrotation Yrotation
								JOINT lhand
								{
									OFFSET 0 0 0
CHANNELS 3 Zrotation Xrotation Yrotation
									JOINT LFingers
									{
OFFSET 0 -0.792690 0.000000
CHANNELS 3 Zrotation Xrotation Yrotation
										End Site
										{
OFFSET 0 -0.639090 0.000000
										}
									}
								}
								JOINT LThumb
								{
OFFSET 0 0.000000 0.000000
CHANNELS 3 Zrotation Xrotation Yrotation
									End Site
									{
OFFSET 0 -0.648840 0.648840
									}
								}
							}
						}
					}
				}
				JOINT RightCollar
				{
					OFFSET 0 0 0
					CHANNELS 3 Zrotation Yrotation Xrotation
					JOINT RightShoulder
					{
						OFFSET -3.40955 0.64424 0.14010
CHANNELS 3 Zrotation Xrotation Yrotation
						JOINT RightElbow
						{
OFFSET 0 -5.881760 -0.000000
CHANNELS 3 Zrotation Xrotation Yrotation
							JOINT RightWrist
							{
OFFSET 0 -3.281560 0.000000
CHANNELS 3 Zrotation Xrotation Yrotation
								JOINT rhand
								{
									OFFSET 0 0 0
CHANNELS 3 Zrotation Xrotation Yrotation
									JOINT RFingers
									{
OFFSET 0 -0.863130 0.000000
CHANNELS 3 Zrotation Xrotation Yrotation
										End Site
										{
OFFSET 0 -0.695870 0.000000
										}
									}
								}
								JOINT RThumb
								{
OFFSET 0 0.000000 0.000000
CHANNELS 3 Zrotation Xrotation Yrotation
									End Site
									{
OFFSET 0 -0.706500 0.706500
									}
								}
							}
						}
					}
				}
			}
		}
	}
}
MOTION
Frames: 5
Frame Time: 0.008333333333333333
6.551492 16.247569 25.279925 -0.741856 0.479739 -341.398826 0.000000 0.000000 0.000000 -4.755345 -24.315162 -66.428411 6.286131 14.699983 46.119449 0.513987 -0.269308 13.641995 0.157760 -2.557774 -7.050067 0.000000 0.000000 0.000000 17.646667 18.983220 -34.129913 -12.945022 -18.762175 68.954640 -1.108611 6.678254 -18.798905 -1.645943 8.082857 -22.967738 1.847936 -0.520344 23.574823 0.536062 -0.204825 6.721533 -0.419185 -0.107288 -5.746159 14.394609 6.933595 -0.050715 -25.122207 8.258990 -9.031185 -10.288907 4.487635 -0.713495 0.000000 0.000000 0.000000 10.938739 18.353393 -33.936719 48.491198 -52.368497 24.974118 33.285559 -8.729155 -34.365500 0.000000 0.000000 0.000000 -7.125000 0.000000 0.000000 0.717401 69.262711 -0.416499 0.000000 0.000000 0.000000 -5.842602 -0.685031 35.275539 -46.288136 -51.384197 -23.241002 -19.174808 -7.081058 -4.184237 0.000000 0.000000 0.000000 7.125000 0.000000 0.000000 5.627473 25.546959 2.662549
6.312789 15.576357 23.416991 -0.821911 0.717639 -344.962489 0.000000 0.000000 0.000000 -4.241781 -22.053283 -68.574628 5.141796 13.541597 41.431499 1.509951 6.464732 22.023120 0.517085 4.601297 12.776028 0.000000 0.000000 0.000000 18.110731 19.231479 -42.238833 -16.074828 -19.626417 78.454449 -1.896572 3.484740 -25.180121 -1.241140 7.062088 -19.900341 2.098843 -0.681156 25.474446 0.262352 -0.329159 7.204640 -0.818824 -0.166527 -6.170912 15.530304 7.403675 0.478634 -23.920193 9.739010 -4.342261 -9.875230 5.040798 0.768763 0.000000 0.000000 0.000000 9.952594 16.476271 -30.421958 46.062069 -51.278129 23.064451 34.747188 -8.354269 -33.867833 0.000000 0.000000 0.000000 -7.125000 0.000000 0.000000 3.230539 69.197126 -1.872219 0.000000 0.000000 0.000000 -4.751387 -1.590551 32.389807 -37.317940 -46.396796 -16.470266 -19.766751 -4.074785 -4.177456 0.000000 0.000000 0.000000 7.125000 0.000000 0.000000 5.181769 25.538647 2.450863
6.390744 15.107085 22.140861 -0.843806 0.049521 -349.239451 0.000000 0.000000 0.000000 -6.085851 -21.275790 -67.334755 7.328779 15.598113 50.099438 -0.047968 4.541678 -3.914243 0.818469 -5.764501 -16.104874 0.000000 0.000000 0.000000 17.569107 18.702869 -45.508992 -17.744078 -19.877510 83.391175 -2.361860 2.324547 -28.479439 -1.441595 7.584774 -21.462789 2.324758 -0.704364 25.507419 0.353005 -0.310231 7.932860 -0.856762 -0.147147 -5.382705 16.487091 7.435604 1.231748 -24.401322 10.289176 -1.745046 -10.166220 5.273130 1.553998 0.000000 0.000000 0.000000 8.751217 16.707787 -29.943560 45.352819 -50.940165 22.512408 34.738723 -8.186978 -34.110949 0.000000 0.000000 0.000000 -7.125000 0.000000 0.000000 3.088196 69.454126 -1.809405 0.000000 0.000000 0.000000 -6.153681 0.452265 30.092774 -28.666264 -39.721559 -10.547106 -19.273253 -2.093161 -4.078005 0.000000 0.000000 0.000000 7.125000 0.000000 0.000000 5.556513 25.656382 2.614496
6.777231 15.232223 21.210488 -1.384070 -1.010561 -351.702027 0.000000 0.000000 0.000000 -6.054002 -17.070773 -62.943830 18.616610 19.952449 85.951996 0.652264 -0.735595 -15.025026 0.800045 -5.702260 -15.924804 0.000000 0.000000 0.000000 16.166103 18.491616 -45.460311 -16.667543 -19.731269 80.214350 -2.177998 3.799445 -26.999364 -1.419230 7.533120 -21.305081 2.184443 -1.174357 24.199277 1.207492 -0.913494 7.077019 0.320730 -0.454880 -5.676978 16.219276 7.955728 1.485294 -24.772626 11.036468 -1.846750 -10.198506 5.663080 1.651933 0.000000 0.000000 0.000000 7.943189 18.359873 -31.013065 45.320100 -50.923675 22.487154 36.038426 -7.955407 -33.958141 0.000000 0.000000 0.000000 -7.125000 0.000000 0.000000 5.193758 69.702514 -3.065212 0.000000 0.000000 0.000000 -8.302696 3.961162 27.682944 -25.559962 -36.770667 -8.622957 -17.901235 -0.801994 -3.931605 0.000000 0.000000 0.000000 7.125000 0.000000 0.000000 6.596516 25.841639 3.080830
7.448956 16.466663 20.328749 -1.491430 -1.594235 -351.042371 0.000000 0.000000 0.000000 -6.420365 -12.238856 -42.565974 19.049337 19.977743 87.219439 0.111503 -1.583281 -5.951339 3.259145 -11.102336 -32.626864 0.000000 0.000000 0.000000 13.653283 19.403605 -39.476480 -10.519308 -17.690767 61.209132 -1.168334 3.260669 -19.606523 -1.954564 8.769438 -25.077505 1.334321 -1.776486 19.301357 1.300503 -1.989929 5.816344 1.077506 -0.982961 -4.516477 15.730094 8.553350 -0.135597 -24.923742 11.792020 -1.212178 -10.005438 5.910325 2.258157 0.000000 0.000000 0.000000 9.531401 18.916353 -32.697003 56.693647 -55.361979 31.605121 37.285805 -6.519436 -32.157116 0.000000 0.000000 0.000000 -7.125000 0.000000 0.000000 7.885694 68.142176 -4.393376 0.000000 0.000000 0.000000 -7.183998 7.702455 26.011952 -30.621341 -41.420088 -11.818524 -16.374340 -2.765781 -3.874379 0.000000 0.000000 0.000000 7.125000 0.000000 0.000000 7.750663 25.930981 3.612032
